<svg width="500" height="65" viewBox="0 0 500 65" fill="none" xmlns="http://www.w3.org/2000/svg">
<circle cx="32.2504" cy="32.2504" r="32.2504" fill="#2D2A2E"/>
<path d="M39.0541 38.0625H43.3422V41.4494H38.5247L37.413 50.4459H33.6542L34.8189 41.4494H27.1426L25.925 50.4459H22.1663L23.3309 41.4494H19.1487V38.0625H23.7545L25.3956 26.3141H21.1075V22.8213H25.8191L27.0367 13.9835H30.7955L29.5779 22.8213H37.3071L38.5247 13.9835H42.2834L41.0658 22.8213H45.301V26.3141H40.5894L39.0541 38.0625ZM35.2424 38.0625L36.8836 26.3141H29.1014L27.5661 38.0625H35.2424Z" fill="#FFD866"/>
<path d="M106.588 30.2865C106.588 37.0474 105.036 41.7387 101.931 44.3603C98.8268 46.9819 94.9979 48.2928 90.4446 48.2928H82.2693V12.6424H89.8754C94.8771 12.6424 98.913 13.9014 101.983 16.4196C105.053 18.9377 106.588 23.56 106.588 30.2865ZM101.776 30.2865C101.776 26.423 101.241 23.4737 100.172 21.4385C99.1373 19.3689 97.8437 18.0063 96.2914 17.3509C94.7392 16.661 92.9627 16.3161 90.962 16.3161H86.7709V44.6708H91.0137C94.0838 44.6708 96.6364 43.6187 98.6716 41.5145C100.741 39.3758 101.776 35.6332 101.776 30.2865Z" fill="#FFD866"/>
<path d="M127.317 48.448C126.247 51.587 124.781 54.0879 122.918 55.9506C121.056 57.8133 118.451 58.9171 115.105 59.2621L114.484 55.7954C116.313 55.4849 117.761 55.002 118.831 54.3466C119.935 53.7257 120.797 52.9323 121.418 51.9664C122.039 51.0351 122.608 49.8105 123.125 48.2928H121.677L112.208 21.0246H116.813L124.626 44.9812L132.336 21.0246H136.837L127.317 48.448Z" fill="#FFD866"/>
<path d="M155.858 41.5663C155.858 44.0154 157.359 45.24 160.36 45.24C161.774 45.24 163.292 44.9295 164.913 44.3086L166.051 47.4649C164.327 48.3962 162.171 48.8619 159.583 48.8619C157.134 48.8619 155.168 48.1893 153.685 46.844C152.236 45.4987 151.512 43.6704 151.512 41.3593V13.522H143.129V10.0553H155.858V41.5663Z" fill="#FFD866"/>
<path d="M195.783 42.3424C195.783 43.4117 195.955 44.2051 196.3 44.7225C196.645 45.2055 197.214 45.5677 198.008 45.8091L196.921 48.9137C194.265 48.5687 192.609 47.2752 191.954 45.033C190.988 46.2748 189.763 47.2234 188.28 47.8788C186.831 48.5342 185.21 48.8619 183.416 48.8619C180.691 48.8619 178.535 48.103 176.949 46.5853C175.396 45.0675 174.62 43.0323 174.62 40.4797C174.62 37.6856 175.707 35.5297 177.88 34.0119C180.088 32.4941 183.244 31.7352 187.349 31.7352H191.385V29.5103C191.385 27.5786 190.833 26.1988 189.729 25.371C188.625 24.5086 187.021 24.0774 184.917 24.0774C182.847 24.0774 180.484 24.5431 177.828 25.4744L176.638 22.1629C179.846 21.0246 182.83 20.4554 185.59 20.4554C188.901 20.4554 191.419 21.2316 193.144 22.7838C194.903 24.3361 195.783 26.492 195.783 29.2516V42.3424ZM184.503 45.6022C185.848 45.6022 187.125 45.2572 188.332 44.5673C189.574 43.8774 190.591 42.9288 191.385 41.7215V34.7363H187.452C184.555 34.7363 182.468 35.2192 181.192 36.1851C179.915 37.1509 179.277 38.5652 179.277 40.4279C179.277 43.8774 181.019 45.6022 184.503 45.6022Z" fill="#FFD866"/>
<path d="M207.249 21.0246H210.975L211.337 24.8535C212.406 23.4737 213.752 22.4044 215.373 21.6455C217.029 20.8521 218.684 20.4554 220.34 20.4554C225.445 20.4554 227.998 23.146 227.998 28.5272V48.2928H223.652V31.7352C223.652 29.7001 223.531 28.1478 223.289 27.0784C223.082 26.0091 222.651 25.2157 221.996 24.6983C221.341 24.1809 220.34 23.9222 218.995 23.9222C217.512 23.9222 216.115 24.3706 214.804 25.2675C213.493 26.1643 212.424 27.2337 211.596 28.4755V48.2928H207.249V21.0246Z" fill="#FFD866"/>
<path d="M291.911 38.41C291.911 40.4797 291.394 42.3079 290.359 43.8947C289.324 45.4469 287.823 46.6715 285.857 47.5684C283.891 48.4307 281.563 48.8619 278.872 48.8619C276.285 48.8619 273.922 48.4825 271.783 47.7236C269.679 46.9302 267.868 45.8091 266.35 44.3603L269.041 41.3076C270.352 42.5494 271.8 43.498 273.387 44.1534C275.008 44.8088 276.854 45.1365 278.924 45.1365C281.269 45.1365 283.236 44.5673 284.822 43.429C286.409 42.2907 287.202 40.6522 287.202 38.5135C287.202 37.3062 286.978 36.3058 286.53 35.5124C286.081 34.719 285.288 34.0119 284.15 33.391C283.046 32.7701 281.476 32.1664 279.441 31.58C275.578 30.4417 272.697 29.1136 270.8 27.5959C268.903 26.0436 267.954 23.9394 267.954 21.2833C267.954 19.5241 268.437 17.9373 269.403 16.523C270.369 15.1088 271.731 14.0222 273.491 13.2633C275.25 12.4699 277.251 12.0732 279.493 12.0732C281.838 12.0732 283.925 12.4182 285.754 13.1081C287.616 13.7979 289.324 14.8155 290.876 16.1608L288.186 19.0584C285.736 16.9197 282.891 15.8504 279.648 15.8504C277.578 15.8504 275.871 16.2988 274.526 17.1957C273.18 18.0926 272.508 19.4034 272.508 21.1281C272.508 22.1629 272.784 23.0426 273.336 23.7669C273.887 24.4913 274.802 25.164 276.078 25.7849C277.354 26.4058 279.148 27.044 281.459 27.6994C284.805 28.6652 287.375 29.9243 289.169 31.4765C290.997 33.0288 291.911 35.34 291.911 38.41Z" fill="#FFD866"/>
<path d="M304.671 24.8018C305.74 23.422 307.051 22.3527 308.603 21.5938C310.156 20.8349 311.76 20.4554 313.416 20.4554C318.521 20.4554 321.073 23.146 321.073 28.5272V48.2928H316.727V28.579C316.727 26.9577 316.348 25.7849 315.589 25.0605C314.83 24.3016 313.622 23.9222 311.967 23.9222C310.552 23.9222 309.19 24.3706 307.879 25.2675C306.568 26.1643 305.499 27.2164 304.671 28.4237V48.2928H300.325V10.107L304.671 9.64132V24.8018Z" fill="#FFD866"/>
<path d="M334.817 36.1851C334.92 39.1861 335.696 41.4455 337.145 42.9633C338.628 44.4811 340.491 45.24 342.733 45.24C344.078 45.24 345.303 45.0502 346.407 44.6708C347.545 44.2569 348.752 43.636 350.029 42.8081L352.047 45.7056C350.77 46.706 349.304 47.4821 347.649 48.034C346.027 48.586 344.389 48.8619 342.733 48.8619C338.801 48.8619 335.731 47.5856 333.523 45.033C331.35 42.4459 330.263 38.9964 330.263 34.6846C330.263 31.9595 330.746 29.5276 331.712 27.3889C332.678 25.2157 334.058 23.5255 335.851 22.3182C337.645 21.0764 339.732 20.4554 342.112 20.4554C345.562 20.4554 348.27 21.6628 350.236 24.0774C352.236 26.4575 353.237 29.7173 353.237 33.8567C353.237 34.6501 353.202 35.4262 353.133 36.1851H334.817ZM342.164 24.0257C340.06 24.0257 338.352 24.7845 337.041 26.3023C335.731 27.7856 334.989 29.976 334.817 32.8736H348.994C348.959 30.0105 348.339 27.8201 347.131 26.3023C345.924 24.7845 344.268 24.0257 342.164 24.0257Z" fill="#FFD866"/>
<path d="M378.467 9.53784C381.054 9.53784 383.52 10.0208 385.866 10.9866L384.469 14.2464C382.744 13.4875 380.795 13.1081 378.622 13.1081C374.828 13.1081 372.93 14.6086 372.93 17.6096V23.146H382.14L381.675 26.6128H372.93V48.2928H368.532V26.6128H362.065V23.146H368.532V17.7131C368.532 15.264 369.464 13.2978 371.326 11.8145C373.224 10.2967 375.604 9.53784 378.467 9.53784Z" fill="#FFD866"/>
<path d="M409.492 9.53784C412.079 9.53784 414.545 10.0208 416.891 10.9866L415.494 14.2464C413.769 13.4875 411.82 13.1081 409.647 13.1081C405.853 13.1081 403.955 14.6086 403.955 17.6096V23.146H413.166L412.7 26.6128H403.955V48.2928H399.557V26.6128H393.09V23.146H399.557V17.7131C399.557 15.264 400.489 13.2978 402.351 11.8145C404.249 10.2967 406.629 9.53784 409.492 9.53784Z" fill="#FFD866"/>
<path d="M427.892 36.1851C427.995 39.1861 428.772 41.4455 430.22 42.9633C431.704 44.4811 433.566 45.24 435.808 45.24C437.154 45.24 438.378 45.0502 439.482 44.6708C440.621 44.2569 441.828 43.636 443.104 42.8081L445.122 45.7056C443.846 46.706 442.38 47.4821 440.724 48.034C439.103 48.586 437.464 48.8619 435.808 48.8619C431.876 48.8619 428.806 47.5856 426.598 45.033C424.425 42.4459 423.339 38.9964 423.339 34.6846C423.339 31.9595 423.822 29.5276 424.787 27.3889C425.753 25.2157 427.133 23.5255 428.927 22.3182C430.721 21.0764 432.807 20.4554 435.188 20.4554C438.637 20.4554 441.345 21.6628 443.311 24.0774C445.312 26.4575 446.312 29.7173 446.312 33.8567C446.312 34.6501 446.278 35.4262 446.209 36.1851H427.892ZM435.239 24.0257C433.135 24.0257 431.428 24.7845 430.117 26.3023C428.806 27.7856 428.064 29.976 427.892 32.8736H442.069C442.035 30.0105 441.414 27.8201 440.207 26.3023C438.999 24.7845 437.344 24.0257 435.239 24.0257Z" fill="#FFD866"/>
<path d="M473.871 20.4554C474.974 20.4554 476.251 20.6452 477.699 21.0246L477.079 30.2865H473.56V24.4396H473.301C469.093 24.4396 466.109 27.4406 464.35 33.4427V44.9295H469.886V48.2928H455.709V44.9295H460.004V24.3879H455.709V21.0246H463.263L464.091 27.4924C465.195 25.1467 466.506 23.3875 468.024 22.2147C469.576 21.0419 471.525 20.4554 473.871 20.4554Z" fill="#FFD866"/>
</svg>
