<svg width="500" height="65" viewBox="0 0 500 65" fill="none" xmlns="http://www.w3.org/2000/svg">
<circle cx="32.2504" cy="32.692" r="32.2504" fill="#2D2A2E"/>
<path d="M39.0541 38.5041H43.3422V41.891H38.5247L37.413 50.8876H33.6542L34.8189 41.891H27.1426L25.925 50.8876H22.1663L23.3309 41.891H19.1487V38.5041H23.7545L25.3956 26.7557H21.1075V23.2629H25.8191L27.0367 14.4252H30.7955L29.5779 23.2629H37.3071L38.5247 14.4252H42.2834L41.0658 23.2629H45.301V26.7557H40.5894L39.0541 38.5041ZM35.2424 38.5041L36.8836 26.7557H29.1014L27.5661 38.5041H35.2424Z" fill="#FFD866"/>
<path d="M106.588 30.7281C106.588 37.4891 105.036 42.1804 101.931 44.802C98.8268 47.4236 94.9979 48.7344 90.4446 48.7344H82.2693V13.084H89.8754C94.8771 13.084 98.913 14.3431 101.983 16.8612C105.053 19.3793 106.588 24.0016 106.588 30.7281ZM101.776 30.7281C101.776 26.8647 101.241 23.9154 100.172 21.8802C99.1373 19.8105 97.8437 18.448 96.2914 17.7926C94.7392 17.1027 92.9627 16.7577 90.962 16.7577H86.7709V45.1124H91.0137C94.0838 45.1124 96.6364 44.0604 98.6716 41.9562C100.741 39.8175 101.776 36.0748 101.776 30.7281Z" fill="#2D2A2E"/>
<path d="M127.317 48.8896C126.247 52.0287 124.781 54.5295 122.918 56.3922C121.056 58.255 118.451 59.3588 115.105 59.7037L114.484 56.237C116.313 55.9266 117.761 55.4436 118.831 54.7882C119.935 54.1673 120.797 53.3739 121.418 52.4081C122.039 51.4767 122.608 50.2522 123.125 48.7344H121.677L112.208 21.4663H116.813L124.626 45.4229L132.336 21.4663H136.837L127.317 48.8896Z" fill="#2D2A2E"/>
<path d="M155.858 42.0079C155.858 44.457 157.359 45.6816 160.36 45.6816C161.774 45.6816 163.292 45.3712 164.913 44.7502L166.051 47.9065C164.327 48.8379 162.171 49.3036 159.583 49.3036C157.134 49.3036 155.168 48.6309 153.685 47.2856C152.236 45.9403 151.512 44.1121 151.512 41.8009V13.9636H143.129V10.4969H155.858V42.0079Z" fill="#2D2A2E"/>
<path d="M195.783 42.784C195.783 43.8534 195.955 44.6468 196.3 45.1642C196.645 45.6471 197.214 46.0093 198.008 46.2508L196.921 49.3553C194.265 49.0104 192.609 47.7168 191.954 45.4746C190.988 46.7165 189.763 47.6651 188.28 48.3205C186.831 48.9759 185.21 49.3036 183.416 49.3036C180.691 49.3036 178.535 48.5447 176.949 47.0269C175.396 45.5091 174.62 43.4739 174.62 40.9213C174.62 38.1272 175.707 35.9713 177.88 34.4536C180.088 32.9358 183.244 32.1769 187.349 32.1769H191.385V29.952C191.385 28.0203 190.833 26.6405 189.729 25.8126C188.625 24.9502 187.021 24.519 184.917 24.519C182.847 24.519 180.484 24.9847 177.828 25.9161L176.638 22.6046C179.846 21.4663 182.83 20.8971 185.59 20.8971C188.901 20.8971 191.419 21.6732 193.144 23.2255C194.903 24.7778 195.783 26.9337 195.783 29.6933V42.784ZM184.503 46.0438C185.848 46.0438 187.125 45.6989 188.332 45.009C189.574 44.3191 190.591 43.3705 191.385 42.1631V35.1779H187.452C184.555 35.1779 182.468 35.6609 181.192 36.6267C179.915 37.5926 179.277 39.0069 179.277 40.8696C179.277 44.3191 181.019 46.0438 184.503 46.0438Z" fill="#2D2A2E"/>
<path d="M207.249 21.4663H210.975L211.337 25.2952C212.406 23.9154 213.752 22.8461 215.373 22.0872C217.029 21.2938 218.684 20.8971 220.34 20.8971C225.445 20.8971 227.998 23.5877 227.998 28.9689V48.7344H223.652V32.1769C223.652 30.1417 223.531 28.5894 223.289 27.5201C223.082 26.4508 222.651 25.6574 221.996 25.14C221.341 24.6225 220.34 24.3638 218.995 24.3638C217.512 24.3638 216.115 24.8123 214.804 25.7091C213.493 26.606 212.424 27.6753 211.596 28.9171V48.7344H207.249V21.4663Z" fill="#2D2A2E"/>
<path d="M291.911 38.8516C291.911 40.9213 291.394 42.7496 290.359 44.3363C289.324 45.8886 287.823 47.1131 285.857 48.01C283.891 48.8724 281.563 49.3036 278.872 49.3036C276.285 49.3036 273.922 48.9241 271.783 48.1652C269.679 47.3719 267.868 46.2508 266.35 44.802L269.041 41.7492C270.352 42.991 271.8 43.9396 273.387 44.595C275.008 45.2504 276.854 45.5781 278.924 45.5781C281.269 45.5781 283.236 45.009 284.822 43.8706C286.409 42.7323 287.202 41.0938 287.202 38.9551C287.202 37.7478 286.978 36.7475 286.53 35.9541C286.081 35.1607 285.288 34.4536 284.15 33.8326C283.046 33.2117 281.476 32.6081 279.441 32.0217C275.578 30.8833 272.697 29.5553 270.8 28.0375C268.903 26.4853 267.954 24.3811 267.954 21.725C267.954 19.9657 268.437 18.379 269.403 16.9647C270.369 15.5504 271.731 14.4638 273.491 13.7049C275.25 12.9115 277.251 12.5149 279.493 12.5149C281.838 12.5149 283.925 12.8598 285.754 13.5497C287.616 14.2396 289.324 15.2572 290.876 16.6025L288.186 19.5001C285.736 17.3614 282.891 16.292 279.648 16.292C277.578 16.292 275.871 16.7405 274.526 17.6373C273.18 18.5342 272.508 19.845 272.508 21.5697C272.508 22.6046 272.784 23.4842 273.336 24.2086C273.887 24.933 274.802 25.6056 276.078 26.2265C277.354 26.8474 279.148 27.4856 281.459 28.141C284.805 29.1069 287.375 30.3659 289.169 31.9182C290.997 33.4705 291.911 35.7816 291.911 38.8516Z" fill="#2D2A2E"/>
<path d="M304.671 25.2434C305.74 23.8636 307.051 22.7943 308.603 22.0354C310.156 21.2765 311.76 20.8971 313.416 20.8971C318.521 20.8971 321.073 23.5877 321.073 28.9689V48.7344H316.727V29.0206C316.727 27.3994 316.348 26.2265 315.589 25.5022C314.83 24.7433 313.622 24.3638 311.967 24.3638C310.552 24.3638 309.19 24.8123 307.879 25.7091C306.568 26.606 305.499 27.6581 304.671 28.8654V48.7344H300.325V10.5487L304.671 10.083V25.2434Z" fill="#2D2A2E"/>
<path d="M334.817 36.6267C334.92 39.6278 335.696 41.8872 337.145 43.405C338.628 44.9227 340.491 45.6816 342.733 45.6816C344.078 45.6816 345.303 45.4919 346.407 45.1124C347.545 44.6985 348.752 44.0776 350.029 43.2497L352.047 46.1473C350.77 47.1476 349.304 47.9238 347.649 48.4757C346.027 49.0276 344.389 49.3036 342.733 49.3036C338.801 49.3036 335.731 48.0273 333.523 45.4746C331.35 42.8875 330.263 39.4381 330.263 35.1262C330.263 32.4011 330.746 29.9692 331.712 27.8306C332.678 25.6574 334.058 23.9671 335.851 22.7598C337.645 21.518 339.732 20.8971 342.112 20.8971C345.562 20.8971 348.27 22.1044 350.236 24.519C352.236 26.8992 353.237 30.1589 353.237 34.2983C353.237 35.0917 353.202 35.8678 353.133 36.6267H334.817ZM342.164 24.4673C340.06 24.4673 338.352 25.2262 337.041 26.744C335.731 28.2272 334.989 30.4177 334.817 33.3152H348.994C348.959 30.4522 348.339 28.2617 347.131 26.744C345.924 25.2262 344.268 24.4673 342.164 24.4673Z" fill="#2D2A2E"/>
<path d="M378.467 9.97949C381.054 9.97949 383.52 10.4624 385.866 11.4283L384.469 14.688C382.744 13.9291 380.795 13.5497 378.622 13.5497C374.828 13.5497 372.93 15.0502 372.93 18.0513V23.5877H382.14L381.675 27.0544H372.93V48.7344H368.532V27.0544H362.065V23.5877H368.532V18.1548C368.532 15.7056 369.464 13.7394 371.326 12.2561C373.224 10.7384 375.604 9.97949 378.467 9.97949Z" fill="#2D2A2E"/>
<path d="M409.492 9.97949C412.079 9.97949 414.545 10.4624 416.891 11.4283L415.494 14.688C413.769 13.9291 411.82 13.5497 409.647 13.5497C405.853 13.5497 403.955 15.0502 403.955 18.0513V23.5877H413.166L412.7 27.0544H403.955V48.7344H399.557V27.0544H393.09V23.5877H399.557V18.1548C399.557 15.7056 400.489 13.7394 402.351 12.2561C404.249 10.7384 406.629 9.97949 409.492 9.97949Z" fill="#2D2A2E"/>
<path d="M427.892 36.6267C427.995 39.6278 428.772 41.8872 430.22 43.405C431.704 44.9227 433.566 45.6816 435.808 45.6816C437.154 45.6816 438.378 45.4919 439.482 45.1124C440.621 44.6985 441.828 44.0776 443.104 43.2497L445.122 46.1473C443.846 47.1476 442.38 47.9238 440.724 48.4757C439.103 49.0276 437.464 49.3036 435.808 49.3036C431.876 49.3036 428.806 48.0273 426.598 45.4746C424.425 42.8875 423.339 39.4381 423.339 35.1262C423.339 32.4011 423.822 29.9692 424.787 27.8306C425.753 25.6574 427.133 23.9671 428.927 22.7598C430.721 21.518 432.807 20.8971 435.188 20.8971C438.637 20.8971 441.345 22.1044 443.311 24.519C445.312 26.8992 446.312 30.1589 446.312 34.2983C446.312 35.0917 446.278 35.8678 446.209 36.6267H427.892ZM435.239 24.4673C433.135 24.4673 431.428 25.2262 430.117 26.744C428.806 28.2272 428.064 30.4177 427.892 33.3152H442.069C442.035 30.4522 441.414 28.2617 440.207 26.744C438.999 25.2262 437.344 24.4673 435.239 24.4673Z" fill="#2D2A2E"/>
<path d="M473.871 20.8971C474.974 20.8971 476.251 21.0868 477.699 21.4663L477.079 30.7281H473.56V24.8812H473.301C469.093 24.8812 466.109 27.8823 464.35 33.8844V45.3712H469.886V48.7344H455.709V45.3712H460.004V24.8295H455.709V21.4663H463.263L464.091 27.934C465.195 25.5884 466.506 23.8292 468.024 22.6563C469.576 21.4835 471.525 20.8971 473.871 20.8971Z" fill="#2D2A2E"/>
</svg>
